<svg width="172" height="8" viewBox="0 0 172 8" fill="none" xmlns="http://www.w3.org/2000/svg">
<path d="M0.5 1.63861C1.33592 2.3498 3.99241 4.40008 5.50734 5.03829C8.36585 6.24251 9.77324 1.76423 11.4003 1.53137C13.3341 1.25463 17.2107 3.42035 21.8903 4.87698C26.7038 6.37532 30.088 1.08521 33.8523 1.62184C35.4741 1.85304 37.3471 4.02945 38.8353 4.78568C45.2626 8.0518 55.4065 -0.422116 60.1881 0.583205C65.6559 1.7328 69.3954 4.1293 70.8216 4.34457C74.4692 4.89514 81.0298 1.38681 88.5649 1.69343C92.4808 1.85278 95.2849 4.77675 97.5526 5.50633C100.908 6.5858 104.818 2.58898 109.965 2.82229C116.334 3.11109 120.417 6.7175 121.781 6.35335C123.381 5.9262 124.25 3.83483 125.905 3.00114C129.52 1.18061 134.183 2.54365 141.354 5.18448C142.937 5.76766 143.678 5.81353 144.415 5.52347C147.937 4.13823 152.331 1.29253 157.105 0.999961C161.063 2.81102 163.538 4.3953 165.432 5.21389C166.5 5.61407 167.783 5.98336 170.562 6.6386" stroke="#2F46F5" stroke-linecap="round" stroke-linejoin="round"/>
</svg>
