<svg width="67" height="44" viewBox="0 0 67 44" fill="none" xmlns="http://www.w3.org/2000/svg">
<path d="M31.4893 34.9821C31.5862 34.9801 31.8385 35.0155 31.958 35.277C32.0418 35.4611 31.9857 35.6237 31.9775 35.6481C31.9503 35.7294 31.9059 35.7897 31.8975 35.8014C31.8667 35.8444 31.8263 35.8904 31.7939 35.9264C31.6591 36.0767 31.3847 36.3549 31.0908 36.6589C30.9569 36.7974 30.8162 36.9451 30.6758 37.0944C30.5927 37.2159 30.5044 37.3496 30.4111 37.4958C30.2221 37.7919 30.0153 38.1374 29.7812 38.5387C29.8042 38.5618 29.8272 38.5891 29.8555 38.6149C30.1316 38.8666 30.5577 39.1483 31.0273 39.4245C31.3517 39.6149 31.6008 39.635 31.7812 39.611C31.9297 39.5911 32.0677 39.5097 32.2012 39.3737C32.3201 39.2524 32.4155 39.1073 32.5596 38.7663C32.6672 38.5122 32.9606 38.3932 33.2148 38.5006C33.4687 38.6083 33.5878 38.9018 33.4805 39.1559C33.3149 39.5479 33.1609 39.8243 32.915 40.0749C32.6837 40.3105 32.3533 40.5434 31.9141 40.6022C31.5067 40.6566 31.0323 40.5873 30.5195 40.2858C30.0772 40.0257 29.619 39.7293 29.2705 39.4303C28.9623 39.9782 28.6139 40.6072 28.2188 41.3327C28.1306 41.4945 28.0372 41.6381 27.9336 41.7448C27.8456 41.8354 27.6393 42.0127 27.3477 41.9616C27.0662 41.912 26.9382 41.688 26.8975 41.6081C26.8457 41.5064 26.8164 41.3973 26.7988 41.3239C26.6227 40.5863 26.5438 39.3282 26.4863 38.3014C26.1294 38.9655 25.7229 39.589 25.3213 40.1803C25.1616 40.4155 25.003 40.6451 24.8496 40.8708C24.8159 41.0274 24.7812 41.1806 24.7402 41.3258C24.6041 41.8084 24.43 42.2414 24.2627 42.5798C24.1791 42.7487 24.0941 42.8995 24.0137 43.0231C23.9396 43.137 23.8481 43.2603 23.7461 43.3483C23.5976 43.4763 23.4075 43.5805 23.2305 43.6227C23.183 43.634 23.121 43.6445 23.0527 43.6442C22.9904 43.6438 22.8799 43.6343 22.7666 43.57C22.6325 43.4936 22.5314 43.359 22.5029 43.1921C22.4789 43.0507 22.5155 42.9339 22.542 42.8698L22.7314 42.4469C23.0574 41.7709 23.4761 41.116 23.9082 40.4762C24.0361 39.7762 24.0412 39.0461 23.8018 38.4264C23.7232 38.2232 23.6235 38.1117 23.5342 38.0592C23.4387 38.0033 23.2885 37.9704 23.0713 37.988C23.0048 37.9934 22.9451 37.9992 22.8906 38.0075C22.836 38.0158 22.7951 38.026 22.7666 38.0358C22.7646 38.0365 22.7625 38.0371 22.7607 38.0378C22.5597 38.5765 22.5039 38.9181 22.501 38.9362C22.4569 39.2085 22.2001 39.394 21.9277 39.3503C21.6554 39.3064 21.4702 39.0503 21.5137 38.778C21.5235 38.7173 21.5946 38.288 21.8398 37.6423C21.9635 37.3171 22.2314 37.1628 22.4404 37.0905C22.6413 37.0211 22.8563 37.0027 22.9902 36.9919C23.3236 36.9648 23.7036 36.9997 24.04 37.1969C24.3829 37.3982 24.603 37.7253 24.7344 38.0651C24.8425 38.3448 24.9125 38.6344 24.9531 38.9255C25.4928 38.0898 25.97 37.242 26.2617 36.3171C26.2731 36.2809 26.2881 36.2389 26.3076 36.1969C26.3235 36.1629 26.3596 36.0892 26.4277 36.0212C26.5004 35.9487 26.684 35.8183 26.9326 35.8864C27.1303 35.9409 27.2231 36.0884 27.2471 36.1286C27.3057 36.2268 27.3299 36.3363 27.3398 36.3844C27.3537 36.4516 27.3647 36.5286 27.374 36.6071C27.4109 36.9167 27.4379 37.412 27.4678 37.9508C27.5109 38.7288 27.5605 39.6059 27.6426 40.3034C28.0114 39.6303 28.3368 39.0423 28.6289 38.5299C28.5921 38.3616 28.5971 38.1717 28.6895 37.9801L28.748 37.8698C28.9 37.6045 29.1551 37.2908 29.4102 36.9987C29.5651 36.8212 29.7322 36.6371 29.8994 36.4587C30.2992 35.8821 30.6436 35.4903 31.0029 35.2155C31.0636 35.1691 31.1178 35.1291 31.1621 35.0993C31.1834 35.085 31.2121 35.0667 31.2422 35.0505C31.2571 35.0424 31.2812 35.0306 31.3105 35.0192C31.3307 35.0114 31.399 34.984 31.4893 34.9821ZM40.0127 30.3864C40.3142 30.3115 40.574 30.4672 40.6904 30.5524C40.851 30.67 40.9848 30.8269 41.0742 30.9528C41.4414 31.4699 41.5266 32.0615 41.5488 32.5446C41.5551 32.6806 41.5556 32.8174 41.5557 32.944C41.5697 32.932 41.5839 32.9194 41.5986 32.9069C41.7262 32.7987 41.8779 32.6743 42.0234 32.5866C42.472 32.3164 42.9623 32.4167 43.3105 32.5524C43.6687 32.6922 44.0052 32.9185 44.2402 33.0846C44.5792 33.3243 44.8095 33.69 44.9727 34.071C45.138 34.4572 45.254 34.9057 45.3398 35.3639C45.5111 36.2784 45.5754 37.3175 45.6328 38.1393C45.6509 38.3989 45.6167 38.6725 45.5518 38.9157C45.4877 39.1552 45.3842 39.4039 45.2393 39.5983C44.8613 40.1042 44.2753 40.07 43.8965 39.9889C42.9793 39.7922 42.3182 39.0802 41.9199 38.3454C41.9128 38.3322 41.9063 38.3182 41.9004 38.3044C41.7208 37.8835 41.6405 37.4571 41.6562 36.8346C41.672 36.2139 41.7859 35.3619 42.3086 34.401C42.4405 34.1588 42.7449 34.0693 42.9873 34.2008C43.2296 34.3329 43.3193 34.6371 43.1875 34.8796C42.7604 35.6646 42.6692 36.3498 42.6562 36.86C42.6438 37.3543 42.7041 37.6318 42.8115 37.8903C43.1351 38.4777 43.5922 38.9 44.1064 39.0104C44.2439 39.0398 44.3316 39.0404 44.3818 39.0309C44.4032 39.0268 44.4137 39.0217 44.418 39.0192C44.4214 39.0171 44.4289 39.0125 44.4385 38.9997C44.4843 38.938 44.542 38.8184 44.585 38.6579C44.627 38.5003 44.6448 38.3384 44.6357 38.2087C44.5769 37.3666 44.5157 36.3936 44.3574 35.5485C44.2785 35.1272 44.1781 34.7573 44.0527 34.4645C43.9251 34.1668 43.7883 33.9902 43.6621 33.901C43.4323 33.7387 43.1824 33.5758 42.9473 33.484C42.7022 33.3886 42.5894 33.4144 42.54 33.444C42.4705 33.486 42.3726 33.5614 42.2461 33.6686C42.1358 33.7621 41.9824 33.8979 41.8633 33.9958C41.7511 34.088 41.5893 34.2159 41.4287 34.2819C41.3568 34.3114 41.1734 34.377 40.9668 34.3014C40.7095 34.2071 40.6201 33.9806 40.5957 33.8434C40.5598 33.6414 40.556 33.4165 40.5557 33.2165C40.5553 33.002 40.5585 32.8014 40.5488 32.5905C40.5295 32.171 40.4586 31.8133 40.2588 31.5319C40.238 31.5027 40.2132 31.4729 40.1885 31.445C40.122 31.521 40.0388 31.6411 39.9639 31.8151C39.8352 32.1142 39.7545 32.5229 39.8213 33.0026C39.8706 33.3562 39.95 33.7297 40.0322 34.1198C40.1126 34.5012 40.1956 34.902 40.2402 35.277C40.2844 35.6478 40.2975 36.0389 40.209 36.3932C40.1157 36.7659 39.9067 37.108 39.5215 37.3258C39.0942 37.5673 38.6059 37.4503 38.1631 37.2087C37.6861 36.9483 37.2428 36.6614 36.9092 36.3483C36.8574 36.2996 36.8078 36.2471 36.7588 36.194C36.7282 36.2899 36.6991 36.3864 36.667 36.4792C36.4832 37.0107 36.2488 37.5607 35.959 37.8883C35.8165 38.0493 35.5723 38.2564 35.2344 38.2438C34.8843 38.2305 34.6464 37.9925 34.5 37.7721C33.9311 36.9152 33.4382 35.8618 33.085 34.9919C32.9076 34.555 32.7629 34.1574 32.6592 33.8454C32.5625 33.5547 32.4843 33.2895 32.4668 33.1462C32.4337 32.8723 32.6295 32.622 32.9033 32.5885C33.1772 32.5555 33.4266 32.7522 33.46 33.026C33.4608 33.0303 33.4626 33.0412 33.4668 33.0592C33.4732 33.0866 33.4832 33.1237 33.4961 33.1696C33.522 33.262 33.5601 33.3837 33.6084 33.529C33.705 33.8196 33.8419 34.1977 34.0117 34.6159C34.3413 35.4274 34.7851 36.3708 35.2793 37.1344C35.4107 36.9416 35.5655 36.6035 35.7217 36.152C36.059 35.1767 36.3164 33.9445 36.4023 33.4499C36.4101 33.4033 36.4174 33.3647 36.4219 33.3424C36.4227 33.3384 36.4251 33.3246 36.4287 33.3102C36.4298 33.3059 36.4324 33.2951 36.4365 33.2819C36.4386 33.2755 36.4432 33.2611 36.4502 33.2438C36.4513 33.2409 36.4751 33.1774 36.5273 33.1139C36.5688 33.0695 36.7198 32.9701 36.835 32.9372C37.0036 32.9393 37.256 33.0687 37.332 33.1589C37.3614 33.2104 37.3953 33.2959 37.4033 33.3278C37.407 33.3468 37.4108 33.3796 37.4121 33.3932C37.415 33.4309 37.4125 33.4629 37.4121 33.4674C37.41 33.497 37.4038 33.5314 37.4033 33.5339C37.3996 33.5567 37.3943 33.582 37.3896 33.609C37.3894 33.6109 37.389 33.613 37.3887 33.6149C37.3743 33.7016 37.3527 33.8447 37.3311 34.0153C37.2866 34.3663 37.2487 34.8 37.2676 35.1178C37.2733 35.2138 37.3412 35.3816 37.5938 35.6188C37.8382 35.8483 38.1971 36.0881 38.6416 36.3307C38.8007 36.4176 38.9081 36.4479 38.9707 36.4557C38.9994 36.4593 39.0164 36.4579 39.0234 36.4567L39.0293 36.4557C39.1313 36.398 39.199 36.3117 39.2393 36.151C39.284 35.9718 39.287 35.7226 39.248 35.3952C39.2095 35.0719 39.1357 34.7145 39.0537 34.3258C38.9736 33.9459 38.8852 33.5354 38.8301 33.1403C38.7371 32.4728 38.8468 31.8801 39.0449 31.4196C39.2333 30.982 39.5336 30.5975 39.8818 30.4333L40.0127 30.3864ZM47.1064 26.4762C47.3682 26.4564 47.6005 26.6423 47.6387 26.902C47.6326 26.8609 47.6222 26.8536 47.6484 26.903C47.6715 26.9464 47.7057 27.0021 47.7549 27.0797C47.8452 27.2222 47.9817 27.4303 48.083 27.6588C48.1852 27.8895 48.2736 28.1861 48.2344 28.5133C48.2303 28.5475 48.2235 28.5813 48.2168 28.6149C48.5105 29.2402 48.8817 29.9114 49.2686 30.4645C49.4361 30.6888 49.5093 30.802 49.6816 31.0202C49.8528 31.2369 49.8153 31.5522 49.5986 31.7233C49.3819 31.894 49.0675 31.8569 48.8965 31.6403C48.7185 31.4149 48.5921 31.2286 48.4609 31.0534C48.4578 31.0491 48.4542 31.044 48.4512 31.0397C48.1343 30.5869 47.832 30.0698 47.5674 29.5592C47.0358 30.0153 46.5818 30.377 46.252 30.6305C46.0727 30.7683 45.9306 30.8759 45.833 30.9479C45.7815 30.9859 45.749 31.0095 45.7227 31.029C45.7104 31.038 45.7034 31.0419 45.7012 31.0436C45.7019 31.043 45.7061 31.0408 45.7109 31.0368C45.7134 31.0347 45.7242 31.0251 45.7373 31.0124C45.7387 31.011 45.7398 31.0071 45.7422 31.0046C45.6735 31.0743 45.5852 31.1206 45.4883 31.1413C45.6212 31.4648 45.7584 31.8105 45.8965 32.1725C45.8982 32.1769 45.9008 32.1818 45.9023 32.1862C46.0046 32.48 46.0662 32.695 46.1279 32.9059C46.189 33.1144 46.2509 33.3248 46.3564 33.6247C46.4476 33.8848 46.3116 34.1695 46.0518 34.2614C45.7913 34.3531 45.5048 34.2162 45.4131 33.9557C45.2988 33.6309 45.2306 33.4012 45.168 33.1872C45.106 32.9757 45.0501 32.7827 44.957 32.5153V32.5143C44.426 31.123 43.9229 30.0135 43.6348 29.487C43.6288 29.4761 43.6223 29.464 43.6172 29.4528C43.4966 29.187 43.4092 28.9819 43.3516 28.8376C43.3232 28.7665 43.3006 28.7046 43.2842 28.6559C43.2762 28.6324 43.2659 28.6037 43.2588 28.5758C43.2553 28.5623 43.2509 28.5407 43.2471 28.5163C43.245 28.5036 43.2337 28.4345 43.2471 28.3512C43.2912 28.0789 43.5479 27.8933 43.8203 27.9372C44.0314 27.9712 44.1881 28.1339 44.2285 28.3317C44.2289 28.3328 44.2298 28.3342 44.2305 28.3356C44.2388 28.3602 44.2559 28.403 44.2812 28.4665C44.3312 28.5916 44.4113 28.781 44.5273 29.0368C44.6818 29.3222 44.8804 29.7358 45.1045 30.2419C45.112 30.2363 45.1202 30.23 45.1279 30.2243C45.1516 30.2068 45.1943 30.1757 45.2383 30.1432C45.3324 30.0737 45.4697 29.9714 45.6426 29.8385C45.989 29.5723 46.4806 29.1812 47.0566 28.6813C47.082 28.6592 47.1022 28.6361 47.1211 28.6159C46.9982 28.3285 46.8913 28.0548 46.8125 27.8083C46.7186 27.5146 46.6462 27.2186 46.6445 26.9782C46.6427 26.7157 46.8448 26.4965 47.1064 26.4762ZM45.7598 30.986C45.7643 30.9809 45.7712 30.9765 45.7764 30.9704C45.7819 30.9636 45.7893 30.9511 45.7988 30.9372C45.787 30.9544 45.7735 30.9705 45.7598 30.986ZM45.8145 30.9147C45.8154 30.9132 45.8174 30.9113 45.8184 30.9098C45.825 30.8985 45.8366 30.8748 45.8496 30.8424C45.8395 30.8676 45.8282 30.892 45.8145 30.9147ZM48.9414 25.8122C49.2033 25.7251 49.487 25.8668 49.5742 26.1286C49.5759 26.1326 49.5832 26.1533 49.6025 26.196C49.624 26.2433 49.654 26.3055 49.6904 26.3805C49.7636 26.5313 49.8619 26.7278 49.9746 26.9469C50.0718 27.1359 50.1806 27.3411 50.291 27.5485C50.3742 27.4951 50.4616 27.4442 50.5566 27.4059C50.7199 27.3404 50.8767 27.3184 51.0439 27.318C51.0596 27.318 51.0762 27.3195 51.0918 27.321C51.6791 27.3758 52.4149 27.5332 52.9346 27.9547L53.0352 28.0436L53.0928 28.1061C53.1441 28.174 53.1767 28.2552 53.1885 28.3405C53.2327 28.6627 53.2265 29.1398 52.9707 29.5612C52.8863 29.7002 52.7687 29.8718 52.6172 30.0075C52.4659 30.1429 52.2164 30.2964 51.8955 30.2506C51.3164 30.1677 50.4445 29.8846 49.8574 28.8424C49.6024 28.3896 49.3159 27.8519 49.0859 27.4049C48.9711 27.1817 48.8687 26.9779 48.791 26.818C48.7208 26.6735 48.6529 26.528 48.625 26.444C48.5383 26.1822 48.6797 25.8994 48.9414 25.8122ZM51.0244 28.319C50.9659 28.3206 50.9445 28.3277 50.9297 28.3337C50.9024 28.3447 50.8625 28.3673 50.7744 28.4274C51.1311 29.0079 51.6002 29.1837 51.9629 29.2477C51.9789 29.2316 51.9996 29.2103 52.0225 29.1803C52.0522 29.1412 52.0833 29.0942 52.1152 29.0417C52.1774 28.9393 52.2054 28.8052 52.208 28.6637C51.9269 28.4817 51.5003 28.366 51.0244 28.319ZM44.2393 28.4049C44.2378 28.3797 44.2347 28.3629 44.2344 28.361C44.2327 28.3504 44.2308 28.3414 44.2295 28.3356C44.2339 28.3582 44.238 28.3816 44.2393 28.4049ZM19.3994 7.2028C19.8824 6.88452 20.501 6.88254 21.0879 6.99967L21.3369 7.05631L21.3818 7.06998C22.6938 7.53955 24.1835 8.32858 24.5957 9.79166C24.8002 10.518 24.8292 11.4566 24.5752 12.1159C24.3106 12.8021 23.7358 13.2832 22.9629 13.2546C22.3908 13.2332 21.7484 13.1768 21.1641 13.0085C20.5815 12.8406 20.0012 12.5453 19.623 12.0065C19.4274 11.7275 19.2832 11.3654 19.1719 11.028C19.1093 10.8383 19.052 10.6424 19.001 10.4547C18.977 10.4567 18.9524 10.4563 18.9277 10.4547C18.9292 11.3456 18.7702 12.1926 18.7061 12.5973C18.6484 12.961 18.4771 13.2833 18.2959 13.5065C18.2057 13.6176 18.0965 13.7243 17.9756 13.8014C17.9155 13.8398 17.8351 13.8812 17.7402 13.9049C17.6462 13.9284 17.5011 13.9425 17.3486 13.8756C17.0622 13.7496 16.8316 13.5614 16.6826 13.3073C16.5352 13.0555 16.4922 12.7809 16.5068 12.5212C16.535 12.0239 16.7761 11.4995 17.0381 11.0456C17.2948 10.601 17.6111 10.1607 17.8838 9.78971C17.83 9.40088 17.7271 9.06208 17.5566 8.80045C17.3715 8.51663 17.0962 8.29934 16.6572 8.20475C16.2099 8.10853 15.5389 8.02186 15.0166 8.06119C14.7477 8.08151 14.5822 8.13148 14.5049 8.17838C14.5014 8.1805 14.4978 8.18247 14.4951 8.18424C14.6053 8.96536 15.0476 10.3641 15.6455 12.026C16.2381 13.6732 16.9651 15.5287 17.6201 17.196C18.2719 18.855 18.8571 20.3412 19.1572 21.2292C19.2323 21.4514 19.2934 21.6468 19.333 21.8024C19.3526 21.8795 19.3698 21.9571 19.3799 22.028C19.3875 22.0818 19.4021 22.1968 19.374 22.3161C19.3594 22.3777 19.3179 22.5085 19.1914 22.612C19.0427 22.7334 18.8694 22.7432 18.748 22.7174C18.6448 22.6953 18.5697 22.6472 18.5322 22.6208C18.4898 22.5907 18.454 22.5581 18.4268 22.5309C18.3262 22.4304 18.2118 22.2746 18.0908 22.0934C17.6312 21.4047 17.1145 20.1813 16.6035 18.8415C16.087 17.487 15.5538 15.949 15.0732 14.6071C14.7428 13.6845 14.4381 12.8658 14.1807 12.2467C14.1809 12.2989 14.1827 12.3537 14.1826 12.4098C14.1821 12.9085 14.1663 13.5152 14.0898 14.0827C14.016 14.6304 13.8749 15.2274 13.5684 15.6442C13.4066 15.8641 13.1831 16.056 12.8838 16.1422C12.5847 16.2282 12.2708 16.1911 11.9629 16.071C11.7617 15.9924 11.6228 15.8493 11.5283 15.7184C11.4344 15.5882 11.362 15.4387 11.3027 15.2995C11.2427 15.1584 11.1854 15.0013 11.1309 14.8512C11.0748 14.6969 11.0191 14.5424 10.9561 14.3874C10.701 13.7607 10.3692 13.2287 9.7207 13.0006C9.67077 12.9831 9.58952 12.9829 9.52051 13.0202C9.46936 13.048 9.37898 13.1211 9.33984 13.3415C9.18072 14.2404 9.03807 15.1252 8.93457 15.7721C8.88306 16.0941 8.84087 16.3604 8.81152 16.5378C8.79708 16.625 8.78456 16.6972 8.77539 16.7448C8.77218 16.7614 8.76481 16.799 8.75488 16.8327C8.75242 16.841 8.74443 16.8678 8.73047 16.8991C8.72435 16.9128 8.70631 16.9513 8.6748 16.9938C8.65873 17.0155 8.62807 17.0542 8.58008 17.0915C8.53247 17.1284 8.44049 17.1848 8.31152 17.195C7.99975 17.2191 7.85547 16.9773 7.83008 16.9294C7.79497 16.8627 7.78334 16.8032 7.78027 16.7868C7.77258 16.7453 7.77262 16.7102 7.77246 16.7018C7.75515 15.9165 7.65458 14.987 7.53613 14.2819C7.29064 14.6611 7.01553 15.0467 6.72656 15.4313C6.46512 15.7793 6.18796 16.1339 5.91113 16.4899C6.31878 18.4809 6.92184 20.8544 7.79492 23.1696C8.05461 23.8583 8.20306 24.3934 8.23438 24.8219C8.26727 25.2741 8.17072 25.6441 7.91504 25.944C7.43983 26.5011 6.73676 26.6785 6.10938 26.7233C5.47558 26.7685 4.80928 26.6857 4.31348 26.6247C3.6785 26.5465 3.16807 26.2172 2.77441 25.7624C2.33529 25.2548 2.10768 24.613 1.99512 23.9655C1.88235 23.3162 1.87884 22.625 1.91602 21.984C2.01664 20.2517 3.10627 18.5514 4.23047 17.0407C4.4315 16.7705 4.63827 16.504 4.8418 16.2409C4.79427 15.9984 4.74777 15.7624 4.70605 15.5339C4.40117 16.0662 3.94136 16.5604 3.25293 16.9284C2.59351 17.2807 1.91576 17.1431 1.4043 16.8913C0.939127 16.6621 0.28357 16.2454 0.177734 15.3522C0.00138818 13.8595 6.66609e-06 12.9424 0 12.8581C6.8299e-05 12.582 0.2239 12.3581 0.5 12.3581C0.775888 12.3583 0.999932 12.5821 1 12.8581C0.999999 12.9153 1.00041 13.7919 1.1709 15.235C1.21417 15.5985 1.45486 15.8012 1.8457 15.9938C2.19055 16.1636 2.50895 16.1926 2.78223 16.0465C3.70657 15.5523 4.07354 14.7623 4.20508 13.9714C4.34051 13.1563 4.21863 12.4087 4.18652 12.0055C4.17956 11.9179 4.17326 11.8501 4.16895 11.8024C4.16325 11.7396 4.15797 11.6958 4.15723 11.6755C4.15712 11.672 4.15724 11.6652 4.15723 11.6579C4.1572 11.6544 4.15651 11.6318 4.15918 11.6051C4.16157 11.586 4.1736 11.5278 4.18555 11.4889C4.24718 11.3697 4.63024 11.1562 4.93359 11.2389C5.02465 11.317 5.112 11.4489 5.12695 11.485C5.13271 11.5019 5.14104 11.5297 5.14355 11.5397C5.14743 11.556 5.14967 11.5696 5.15039 11.5739C5.15136 11.5797 5.1519 11.5854 5.15234 11.5885C5.15322 11.5948 5.15381 11.601 5.1543 11.6051C5.15622 11.6212 5.15869 11.644 5.16113 11.6696C5.16467 11.7067 5.16923 11.759 5.1748 11.8258C5.17972 11.8751 5.18487 11.935 5.19238 12.0046C5.24319 12.4748 5.34972 13.3446 5.53613 14.4714C5.57347 14.697 5.61435 14.9336 5.6582 15.1784C5.74828 15.0609 5.83988 14.9464 5.92676 14.8307C6.45681 14.1252 6.90138 13.4772 7.1875 12.8864C7.21373 12.8322 7.30011 12.6676 7.49902 12.5915C7.75745 12.4928 7.96608 12.6195 8.05469 12.6989C8.13642 12.7724 8.18548 12.8587 8.21094 12.9079C8.24069 12.9654 8.26629 13.0272 8.28711 13.0856C8.3052 13.1364 8.32236 13.1935 8.33984 13.2546C8.34492 13.2257 8.35036 13.1965 8.35547 13.1676C8.44137 12.6826 8.69454 12.3308 9.04395 12.1413C9.37542 11.9616 9.75206 11.9517 10.0527 12.0573C11.1203 12.4328 11.5978 13.3128 11.8818 14.0104C11.9534 14.1862 12.0163 14.359 12.0713 14.5104C12.1278 14.6659 12.1752 14.7962 12.2227 14.9079C12.2708 15.0211 12.309 15.092 12.3389 15.1335C12.3426 15.1386 12.3469 15.1428 12.3496 15.1462C12.494 15.1987 12.5716 15.1906 12.6074 15.1803C12.6447 15.1695 12.6985 15.141 12.7637 15.0524C12.9121 14.8506 13.0285 14.4694 13.0986 13.9489C13.1661 13.4483 13.1821 12.8946 13.1826 12.4089C13.1831 11.9561 13.168 11.499 13.1826 11.2926C13.1976 11.0837 13.2263 10.8834 13.2861 10.7233C13.316 10.6436 13.3678 10.5341 13.4629 10.4411C13.5719 10.3346 13.7306 10.2589 13.917 10.2712C13.9451 10.2731 13.9725 10.2786 13.998 10.2839C13.753 9.49797 13.5747 8.81828 13.5049 8.32096C13.4763 8.11737 13.5024 7.9124 13.5986 7.72623C13.693 7.54396 13.8366 7.41492 13.9844 7.32487C14.2655 7.15368 14.6223 7.08824 14.9414 7.06412C15.596 7.01482 16.3707 7.11946 16.8672 7.22623C17.5693 7.37736 18.0672 7.75424 18.3936 8.25455C18.4878 8.39915 18.5647 8.55296 18.6299 8.71061C18.672 8.48554 18.7166 8.29199 18.7686 8.12662C18.9015 7.70342 19.0902 7.40664 19.3994 7.2028ZM34.165 19.3112C34.3809 19.2497 34.6004 19.2685 34.7793 19.3053C35.1388 19.3795 35.5112 19.5654 35.7832 19.7331C36.345 20.0795 36.7864 20.5687 37.209 20.9889C37.644 21.4215 38.1365 21.8663 39.4541 22.9645C39.6659 23.1414 39.6943 23.4566 39.5176 23.6686C39.3409 23.8806 39.0256 23.9095 38.8135 23.7331C37.4906 22.6305 36.9711 22.1625 36.5039 21.6979C36.0243 21.221 35.6936 20.8528 35.2588 20.5846C35.0326 20.4452 34.7746 20.3255 34.5781 20.2848C34.5655 20.2822 34.5528 20.2816 34.542 20.2799C34.5399 20.8128 34.4662 21.8339 34.3477 22.8727C34.228 23.921 34.0573 25.0434 33.8545 25.7272C33.8167 25.8546 33.7786 25.9667 33.7402 26.0544C33.7218 26.0965 33.6953 26.1511 33.6592 26.2038C33.6409 26.2304 33.6125 26.2692 33.5713 26.3073C33.5324 26.3431 33.4567 26.402 33.3457 26.4313C33.2184 26.4648 33.08 26.4494 32.9609 26.3825C32.857 26.3239 32.7984 26.2432 32.7695 26.196C32.7155 26.1073 32.6966 26.0184 32.6895 25.9811C32.6722 25.8911 32.6679 25.7874 32.667 25.696C32.6634 25.318 32.7227 24.639 32.8115 23.8932C32.9014 23.1385 33.0251 22.2847 33.1602 21.5446C33.2911 20.8274 33.4437 20.1515 33.6016 19.7985L33.6484 19.7067C33.7693 19.5014 33.9561 19.3708 34.165 19.3112ZM5.0332 17.6374C3.89999 19.1602 2.99541 20.6414 2.91406 22.0417C2.87902 22.6455 2.88521 23.2517 2.97949 23.7946C3.07414 24.3389 3.25176 24.7861 3.53027 25.1081C3.79665 25.4159 4.0948 25.5895 4.43555 25.6315C4.94816 25.6946 5.51742 25.7634 6.03809 25.7262C6.56476 25.6886 6.93759 25.5494 7.1543 25.2956C7.20047 25.2414 7.25588 25.1513 7.2373 24.8952C7.21684 24.6148 7.11081 24.1889 6.85938 23.5221C6.08466 21.4678 5.51795 19.3757 5.11035 17.5358C5.0849 17.5698 5.05852 17.6034 5.0332 17.6374ZM61.0391 5.00944C61.2553 4.89295 61.456 4.96966 61.5459 5.02506C61.6255 5.07427 61.6724 5.13455 61.6895 5.1569C61.7091 5.18273 61.7262 5.20884 61.7393 5.23209L61.7686 5.28971L61.8447 5.47916C61.9299 5.71729 62.0404 6.09277 62.1475 6.52115C62.1736 6.62584 62.1985 6.73596 62.2246 6.84928C62.4272 7.02183 62.7209 7.1956 63.1035 7.35319C63.6276 7.56898 64.2648 7.73476 64.9268 7.83854C65.145 7.85159 65.2942 7.8501 65.541 7.79362C65.8099 7.73217 66.0778 7.89982 66.1396 8.16862C66.2011 8.43772 66.0328 8.7066 65.7637 8.76823C65.3854 8.85475 65.1325 8.8541 64.8398 8.83561C64.8251 8.83466 64.8096 8.83298 64.7949 8.83073C64.067 8.71815 63.3419 8.53296 62.7227 8.27799C62.6388 8.24344 62.5554 8.20671 62.4736 8.16862C62.4935 8.30463 62.5139 8.44132 62.5293 8.5778C62.6104 9.29617 62.6298 10.0566 62.4785 10.6637C62.4022 10.97 62.2733 11.2756 62.0518 11.5143C61.8184 11.7656 61.5072 11.9152 61.1367 11.9333C60.5447 11.9621 59.4772 12.0587 58.4424 11.6608C58.6112 12.2999 58.6898 13.0086 58.5371 13.7057C58.4584 14.0649 58.2755 14.4844 57.8877 14.6667C57.7568 14.7281 57.6136 14.7526 57.4727 14.7467C57.4178 14.8503 57.3458 14.9523 57.25 15.0436C56.9994 15.2821 56.5976 15.443 56.127 15.318C55.8069 15.233 55.4399 15.1316 55.1064 14.9889C55.0812 14.9781 55.0566 14.9643 55.0312 14.9528C55.0331 14.9674 55.0363 14.9821 55.0381 14.9967C55.1296 15.7689 55.0918 16.7007 54.5381 17.3786C54.2876 17.685 53.8894 17.9066 53.3945 17.8034C53.256 17.7744 53.1284 17.7131 53.043 17.6686C53.0011 17.6468 52.9602 17.6236 52.9238 17.6032C52.903 17.6296 52.8814 17.6555 52.8604 17.6813C53.0899 17.9083 53.3304 18.1381 53.582 18.363C54.6946 19.3572 55.2086 20.445 55.2686 21.5778C55.2839 21.8712 55.1469 22.0917 55.001 22.2331C54.8659 22.3638 54.7048 22.4469 54.5957 22.4977C54.2964 22.6369 53.9607 22.6757 53.6484 22.6745C53.3322 22.6732 53.0006 22.6307 52.6895 22.5778C51.8948 22.4426 51.4595 21.7675 51.2217 21.4079C50.8593 20.8597 50.7753 20.1091 50.8164 19.4128C50.8566 18.7341 51.1609 18.2074 51.4746 17.7907C51.4889 17.7717 51.504 17.7528 51.5186 17.734C51.2231 17.4167 50.9531 17.1083 50.7129 16.82C50.6662 16.9872 50.6039 17.1576 50.5195 17.3268C50.3919 17.5829 50.229 17.8787 50.0156 18.1178C49.7985 18.361 49.4888 18.5889 49.0723 18.613C48.4088 18.6512 47.6092 18.5055 47.1318 17.9352C46.9397 17.7055 46.7464 17.4048 46.7275 16.9557C46.7133 16.6164 46.708 16.2553 46.748 15.9323C46.7864 15.6232 46.8756 15.2609 47.1201 14.9938C47.2587 14.8425 47.4437 14.7457 47.5967 14.6823C47.7595 14.6148 47.9399 14.5626 48.1133 14.5231C48.4584 14.4446 48.8282 14.4042 49.0801 14.4001C49.2062 14.3981 49.321 14.4445 49.4102 14.5202C49.4169 14.5052 49.4219 14.4885 49.4307 14.4733C49.4838 14.3811 49.5692 14.301 49.6807 14.2555C49.7839 14.2135 49.8783 14.2137 49.9395 14.2214C50.0494 14.2352 50.1297 14.2814 50.1582 14.2985C50.2273 14.3399 50.2875 14.3947 50.3291 14.4342C50.4548 14.5539 50.5484 14.7383 50.6113 14.8942C50.6465 14.9814 50.6795 15.0797 50.709 15.1862C50.7708 15.2733 50.8405 15.3685 50.917 15.4704C51.2314 15.8891 51.6542 16.4054 52.1602 16.9557C52.2102 16.8915 52.2567 16.8311 52.2959 16.7712L52.3672 16.6823C52.4456 16.6018 52.5439 16.5467 52.6504 16.5212C52.7754 16.4913 52.8865 16.5073 52.9551 16.5231C53.0855 16.5532 53.2081 16.6188 53.2803 16.6579C53.3863 16.7152 53.4233 16.7385 53.5049 16.7809C53.5663 16.8129 53.5942 16.8224 53.5986 16.8239C53.6389 16.8323 53.6601 16.8266 53.6738 16.821C53.692 16.8134 53.7245 16.7937 53.7637 16.7458C54.0502 16.3949 54.1282 15.8177 54.0449 15.1149C53.9985 14.7238 53.9044 14.3338 53.8047 13.9899C53.5865 14.1635 53.3057 14.2979 52.9453 14.3288C52.6579 14.3534 52.288 14.3845 51.9521 14.3522C51.6305 14.3212 51.2 14.2196 50.9336 13.8512C50.626 13.4255 50.3805 12.7538 50.5938 12.0778C50.6832 11.7945 50.9124 11.3626 51.457 11.3092L51.6836 11.2897C51.9183 11.2732 52.173 11.2685 52.4219 11.2946C52.7518 11.3293 53.1192 11.424 53.4229 11.6676C53.566 11.7826 53.7145 11.9086 53.8564 12.0436C53.9358 11.994 54.0462 11.9522 54.1865 11.9674C54.4293 11.994 54.5487 12.1702 54.5771 12.2145C54.618 12.2783 54.6413 12.3414 54.6533 12.3776C54.6974 12.5109 54.7295 12.7216 54.7559 12.8796C54.7868 13.0651 54.8201 13.2545 54.8633 13.4215C54.9103 13.6034 54.9535 13.6909 54.9717 13.7145C55.0686 13.8392 55.239 13.9583 55.5 14.07C55.7587 14.1807 56.0604 14.2653 56.3838 14.3512C56.4396 14.366 56.4764 14.3613 56.498 14.3551C56.5224 14.3482 56.5442 14.3345 56.5605 14.319C56.5839 14.2965 56.62 14.2365 56.6387 14.1042C56.6458 14.0538 56.6465 14.0031 56.6475 13.9538C56.6436 13.921 56.6419 13.8917 56.6406 13.8678C56.6375 13.8074 56.6392 13.7534 56.6416 13.7145C56.6428 13.6957 56.6436 13.6772 56.6455 13.6608C56.6462 13.6551 56.649 13.639 56.6523 13.6208C56.6533 13.6157 56.6551 13.6051 56.6582 13.5924C56.6598 13.586 56.662 13.5751 56.666 13.5622C56.669 13.5525 56.6788 13.5245 56.6953 13.4909C56.7033 13.4745 56.7205 13.4417 56.749 13.4049C56.7707 13.377 56.8397 13.291 56.9668 13.2428C57.1367 13.1786 57.3173 13.2148 57.4473 13.3141C57.5052 13.3585 57.543 13.4088 57.5674 13.4479C57.7012 12.7771 57.5532 12.0323 57.29 11.3356C57.1587 10.988 57.0037 10.6663 56.8564 10.3883C56.777 10.2687 56.7015 10.1493 56.6377 10.0417C56.5443 9.8841 56.4673 9.74301 56.4248 9.65787C56.4146 9.6373 56.4031 9.61362 56.3936 9.59147C56.3895 9.58199 56.381 9.56109 56.373 9.53678C56.3696 9.52637 56.3597 9.49739 56.3535 9.46061C56.3506 9.44285 56.3458 9.40478 56.3477 9.35709C56.349 9.32345 56.3558 9.20154 56.4443 9.08073C56.5671 8.91339 56.7578 8.86052 56.9121 8.88053C57.026 8.89541 57.1034 8.94574 57.127 8.96159C57.182 8.99863 57.2179 9.03897 57.2246 9.04655C57.247 9.07179 57.263 9.09611 57.2686 9.10416C57.2836 9.12593 57.2998 9.15098 57.3135 9.1735C57.4127 9.33748 57.5536 9.57446 57.708 9.86198C57.7336 9.90005 57.7582 9.93893 57.7842 9.97526C57.8902 10.1236 57.9781 10.2258 58.0352 10.2751C58.9626 11.0746 60.1904 10.978 61.0879 10.9342C61.1994 10.9288 61.2651 10.8921 61.3193 10.8337C61.3853 10.7624 61.456 10.6341 61.5088 10.4225C61.616 9.99249 61.6126 9.3757 61.5352 8.6901C61.4838 8.23558 61.4001 7.77246 61.3096 7.34733C61.2765 7.30893 61.2436 7.27033 61.2139 7.23014C61.1896 7.19734 61.1689 7.16137 61.1533 7.12369C61.0346 6.8358 60.9135 6.35739 60.8428 6.01237C60.8079 5.84236 60.778 5.66795 60.7705 5.54948C60.7687 5.52014 60.7665 5.47272 60.7715 5.42155C60.7739 5.39744 60.7801 5.34829 60.7998 5.29166C60.8135 5.25232 60.8695 5.10095 61.0391 5.00944ZM42.085 16.8747C42.5218 16.5699 43.1261 16.3169 43.7881 16.4665C44.3101 16.5845 44.9452 16.8076 45.373 17.3307C45.7017 17.7326 46.0675 18.252 46.0986 18.9225C46.1135 19.2434 46.1214 19.5788 46.0898 19.8854C46.0589 20.1861 45.9855 20.5148 45.7998 20.7868C45.7295 20.8897 45.6311 21.0205 45.5049 21.1344C45.3791 21.2478 45.196 21.3713 44.958 21.4069C44.7371 21.4399 44.0825 21.528 43.4131 21.445C42.7739 21.3657 41.9086 21.0986 41.5938 20.234C41.5296 20.0576 41.5224 19.8723 41.5273 19.7311C41.3182 19.7819 41.1621 19.8135 40.9658 19.8669C40.7662 19.9211 40.6177 19.9772 40.5146 20.0407C40.4197 20.0992 40.3891 20.1473 40.376 20.1872C40.3751 20.1921 40.3705 20.2153 40.3652 20.2633C40.3592 20.318 40.3546 20.3871 40.3516 20.4684C40.3454 20.6334 40.3455 20.8199 40.3447 21.0026C40.344 21.1674 40.343 21.359 40.3262 21.4889C40.3217 21.5235 40.3134 21.5737 40.2979 21.6256C40.2899 21.6519 40.2766 21.6912 40.2539 21.734C40.233 21.7734 40.1885 21.8471 40.1055 21.9098C40.0093 21.9824 39.8745 22.0295 39.7246 22.0085C39.5925 21.9898 39.5016 21.9247 39.4561 21.8854C39.3727 21.8133 39.3285 21.7281 39.3125 21.6969C38.7231 20.553 38.3663 19.6153 38.1602 18.9118C37.9607 18.2309 37.8886 17.7227 37.9121 17.4577C37.9367 17.1827 38.1791 16.98 38.4541 17.0046C38.729 17.0291 38.9326 17.2716 38.9082 17.5465C38.908 17.5474 38.9073 17.5499 38.9072 17.5534C38.9071 17.5578 38.9072 17.5642 38.9072 17.5719C38.9074 17.5885 38.9081 17.6113 38.9102 17.6393C38.9144 17.6963 38.923 17.7725 38.9385 17.8669C38.9695 18.0562 39.0259 18.3123 39.1191 18.6305C39.2084 18.9353 39.3318 19.296 39.4971 19.7087C39.616 19.4747 39.7986 19.3072 39.9902 19.1891C40.2168 19.0496 40.4754 18.9639 40.7031 18.902C40.9118 18.8453 41.191 18.7853 41.3564 18.7438C41.3894 18.7355 41.4201 18.7244 41.4492 18.7165C41.4237 18.3674 41.4476 18.0743 41.5117 17.8161C41.6083 17.4276 41.788 17.139 42.0342 16.9147L42.085 16.8747ZM52.2266 18.4596C51.994 18.7816 51.8365 19.0994 51.8145 19.4713C51.7779 20.0889 51.8709 20.5765 52.0557 20.8561C52.3307 21.272 52.55 21.5391 52.8574 21.5915C53.1472 21.6407 53.4164 21.6735 53.6523 21.6745C53.8922 21.6754 54.0621 21.6434 54.1738 21.5915C54.2099 21.5747 54.239 21.558 54.2627 21.5436C54.1982 20.7399 53.8253 19.9207 52.916 19.1081C52.6765 18.8941 52.447 18.6757 52.2266 18.4596ZM43.5684 17.4421C43.2978 17.3809 42.9939 17.4684 42.6875 17.6745C42.6017 17.7586 42.5293 17.8687 42.4824 18.0573C42.4454 18.2064 42.4251 18.4091 42.4521 18.7028C42.5172 18.7765 42.5501 18.8527 42.5654 18.901C42.586 18.9658 42.5915 19.0248 42.5938 19.0622C42.6009 19.1865 42.5759 19.3461 42.5635 19.4323C42.5466 19.549 42.5319 19.654 42.5273 19.7497C42.5252 19.7954 42.5258 19.8318 42.5283 19.859C42.5301 19.8782 42.5324 19.8891 42.5332 19.8922C42.6429 20.1932 42.9767 20.3834 43.5361 20.4528C44.0565 20.5173 44.5909 20.4494 44.7998 20.4186C44.8055 20.4152 44.8175 20.4079 44.835 20.3922C44.8761 20.3551 44.9234 20.2983 44.9746 20.2233C45.023 20.1524 45.0706 20.0171 45.0947 19.7829C45.1182 19.5546 45.1141 19.2818 45.0996 18.9694C45.0844 18.6433 44.9078 18.3404 44.5996 17.9635C44.3884 17.7053 44.0278 17.546 43.5684 17.4421ZM49.5078 15.1696C49.4204 15.3053 49.2692 15.3972 49.0957 15.4001C48.9165 15.403 48.6168 15.4348 48.3359 15.4987C48.1964 15.5304 48.0734 15.5672 47.9795 15.6061C47.8765 15.6489 47.8501 15.6766 47.8574 15.6686C47.8277 15.7012 47.7712 15.8057 47.7402 16.0553C47.711 16.2915 47.7127 16.5831 47.7266 16.9137C47.7326 17.0568 47.781 17.1521 47.8994 17.2936C48.0772 17.5054 48.478 17.6458 49.0146 17.6149C49.0713 17.6116 49.1528 17.5826 49.2695 17.4518C49.39 17.3169 49.5052 17.121 49.625 16.8805C49.8297 16.4695 49.8501 16.0444 49.7969 15.696C49.7913 15.6598 49.7813 15.6252 49.7744 15.5915C49.6623 15.4268 49.5717 15.2839 49.5078 15.1696ZM51.5781 12.3024C51.5775 12.3036 51.5769 12.305 51.5762 12.3063C51.5677 12.3227 51.5579 12.3466 51.5479 12.3786C51.4601 12.6566 51.5532 13.0011 51.7441 13.2653C51.7504 13.2737 51.8061 13.3337 52.0479 13.3571C52.2773 13.3792 52.5545 13.3578 52.8594 13.3317C53.1011 13.311 53.2556 13.1791 53.373 12.984C53.2369 12.8253 53.0452 12.6472 52.7969 12.4479C52.7011 12.3711 52.5478 12.313 52.3174 12.2887C52.0955 12.2654 51.8434 12.2772 51.5781 12.3024ZM17.834 11.6755C17.6328 12.045 17.5187 12.3521 17.5059 12.5778C17.4995 12.6919 17.52 12.7598 17.5449 12.8024C17.5483 12.8082 17.5529 12.8145 17.5576 12.821C17.6314 12.7145 17.6961 12.5778 17.7178 12.4411C17.7497 12.2397 17.7927 11.975 17.834 11.6755ZM21.0674 8.02018C20.4879 7.87509 20.1306 7.91912 19.9502 8.03776C19.8922 8.07597 19.8114 8.14396 19.7227 8.42643C19.6802 8.56183 19.6409 8.73371 19.6016 8.95377C19.6057 8.96249 19.6106 8.97098 19.6143 8.97916C19.7008 9.17556 19.7807 9.48395 19.8545 9.76823C19.9343 10.0758 20.0197 10.4071 20.1211 10.7145C20.2248 11.0288 20.3325 11.277 20.4414 11.4323C20.6369 11.7107 20.9727 11.9125 21.4414 12.0475C21.9085 12.182 22.455 12.2351 23.001 12.2555C23.2639 12.2651 23.4986 12.1269 23.6416 11.7565C23.795 11.3582 23.7996 10.6524 23.6338 10.0631C23.3706 9.1291 22.3584 8.48548 21.0674 8.02018ZM31.1562 4.94791C31.4192 4.94089 31.595 5.12347 31.6494 5.18619C31.7412 5.29239 31.8098 5.4241 31.8604 5.55143C31.9643 5.81368 32.0333 6.16375 32.0332 6.56217C32.0331 6.83758 32.0245 7.1161 32.0117 7.3903C32.0342 7.40901 32.0573 7.42866 32.0811 7.44596C32.44 7.70685 32.9229 7.85599 33.5098 7.97623C34.0534 8.08758 34.7547 8.18296 35.3359 8.3444C36.1361 8.56703 36.4412 9.33714 36.5645 9.82487C36.7003 10.3633 36.6751 11.1022 36.1562 11.5485C35.8968 11.7716 35.5653 11.8661 35.2588 11.8844C34.9482 11.9028 34.6203 11.8462 34.3271 11.7214C33.7337 11.4683 33.3039 10.9404 33.1631 10.3551C33.0435 9.85744 33.153 9.35485 33.2617 8.94498C32.8114 8.85086 32.3368 8.72438 31.9053 8.50455C31.8853 8.62711 31.864 8.74727 31.8379 8.86295C31.6893 9.52215 31.4034 10.2028 30.793 10.5212C30.5363 10.6548 30.2177 10.7531 29.8955 10.7712C29.576 10.7889 29.1998 10.7296 28.8906 10.485C28.7037 10.3368 28.5788 10.1167 28.4932 9.92741C28.4778 9.89351 28.4637 9.85758 28.4492 9.82194C28.3823 10.0888 28.3009 10.3369 28.1943 10.5319C28.1132 10.6803 27.9823 10.8681 27.7715 10.9743C27.5156 11.1027 27.2454 11.063 27.0303 10.9284C26.138 10.3691 25.3787 9.52172 24.8291 8.77994C24.2824 8.04203 23.9051 7.35626 23.793 7.07682C23.6905 6.82067 23.8153 6.52923 24.0713 6.42643C24.3274 6.32411 24.618 6.44873 24.7207 6.70475C24.7897 6.87659 25.1149 7.4862 25.6328 8.18522C26.1023 8.8188 26.7022 9.48229 27.3643 9.94694C27.4338 9.7774 27.5057 9.51744 27.5664 9.17741C27.7125 8.35824 27.7714 7.28181 27.7598 6.53092C27.7586 6.4532 27.7578 6.38916 27.7588 6.34244C27.7592 6.32109 27.7598 6.29052 27.7627 6.26139C27.7639 6.24928 27.7681 6.21747 27.7773 6.18033C27.7815 6.16343 27.7926 6.12092 27.8174 6.07194C27.8299 6.04724 27.9102 5.88569 28.1123 5.82096C28.3761 5.73686 28.5659 5.88928 28.624 5.94889C28.6823 6.00896 28.7114 6.0697 28.7197 6.08756C28.7405 6.13206 28.7502 6.17178 28.7529 6.18229C28.7606 6.21198 28.7665 6.24166 28.7695 6.25944C28.7763 6.30007 28.7835 6.35435 28.791 6.41178C28.8223 6.65224 28.8703 7.07068 28.9424 7.55143C29.0145 8.0324 29.1081 8.55445 29.2246 8.98502C29.2829 9.20035 29.3434 9.3805 29.4043 9.5153C29.4657 9.65084 29.5082 9.69672 29.5117 9.70084C29.5671 9.74435 29.6717 9.78243 29.8398 9.77311C30.006 9.76375 30.1862 9.7093 30.3301 9.63444C30.5273 9.5316 30.7273 9.24203 30.8623 8.64323C30.9222 8.37731 30.9625 8.07751 30.9893 7.75553C30.7368 7.41926 30.5754 7.02565 30.5088 6.61979C30.4582 6.31056 30.4598 5.99379 30.498 5.73893C30.5169 5.61374 30.5482 5.4809 30.5986 5.36393C30.6237 5.30582 30.6613 5.23224 30.7188 5.16373C30.7743 5.09753 30.8786 5.00122 31.0381 4.96354L31.1562 4.94791ZM34.248 9.12858C34.1326 9.56227 34.0728 9.85807 34.1357 10.1208C34.2036 10.4024 34.4204 10.6739 34.7188 10.8014C34.8715 10.8664 35.0453 10.8955 35.1992 10.8864C35.3568 10.8769 35.4563 10.8305 35.5039 10.7897C35.5994 10.7074 35.6928 10.4548 35.5957 10.07C35.4857 9.63467 35.305 9.37446 35.0684 9.30826C34.8012 9.23405 34.5305 9.17969 34.248 9.12858ZM44.9072 0.288733C45.4409 -0.0499515 46.196 -0.0898669 46.8105 0.16471C47.2676 0.354092 47.8609 0.606397 48.3594 0.979163C48.8662 1.35845 49.3206 1.89687 49.4238 2.66178C49.5094 3.29656 49.5433 4.01081 49.4443 4.64615C49.3481 5.26347 49.1073 5.92371 48.5371 6.28483C48.0062 6.62091 47.3008 6.62728 46.7275 6.36881C46.5042 6.26792 46.3401 6.08819 46.2227 5.92643C46.101 5.75864 45.9942 5.56029 45.8994 5.36295C45.8037 5.16365 45.7113 4.94544 45.623 4.73502C45.5332 4.52079 45.4474 4.31239 45.3584 4.1149C45.1982 3.75945 45.0549 3.50522 44.9258 3.35709C44.9256 3.41592 44.9258 3.47633 44.9258 3.53678C44.9253 3.81225 44.7012 4.0363 44.4258 4.03678C44.2789 4.03678 44.1471 3.97159 44.0557 3.87076C43.7785 4.19912 43.5194 4.58617 43.291 4.95377C43.1143 5.23819 42.937 5.54164 42.8193 5.72037C42.7667 5.80032 42.685 5.9203 42.5908 6.0026C42.5631 6.02681 42.5175 6.06358 42.4561 6.09342C42.3959 6.12259 42.2861 6.16198 42.1494 6.14323C42.1367 6.14147 42.1243 6.13604 42.1123 6.13346C41.6121 6.60294 40.8988 6.51772 40.3848 6.23014C39.9322 5.97662 39.4463 5.49138 39.0986 5.14615C39.0975 5.1801 39.0958 5.21495 39.0947 5.24967C39.0847 5.57003 39.0778 5.92514 39.0557 6.2692C39.0129 6.93483 38.9118 7.69779 38.5332 8.24967C38.14 8.82265 37.4905 8.98336 36.9355 8.89616C36.371 8.80705 35.8867 8.47503 35.5166 8.0026C35.1786 7.57078 34.827 6.96305 34.749 6.31119C34.6914 5.82759 34.6146 5.1966 34.6611 4.61979C34.707 4.0533 34.883 3.39506 35.4648 3.0153C35.8771 2.74626 36.2163 2.56297 36.4619 2.44498C36.5844 2.38617 36.686 2.34295 36.7627 2.31315C36.8004 2.2985 36.8357 2.28483 36.8662 2.27506C36.881 2.27036 36.8997 2.26522 36.9189 2.26041C36.9258 2.25856 36.9836 2.24287 37.0518 2.24283C37.3274 2.24321 37.5515 2.46711 37.5518 2.74283C37.5515 2.98128 37.3837 3.18043 37.1602 3.23014C37.1672 3.22839 37.1722 3.22766 37.1709 3.22819C37.1653 3.22997 37.1497 3.23518 37.125 3.24479C37.0756 3.264 36.9974 3.29697 36.8945 3.34635C36.6891 3.44504 36.3876 3.60722 36.0107 3.85319C35.8249 3.97462 35.6962 4.23143 35.6582 4.70084C35.6212 5.15983 35.682 5.68817 35.7422 6.19303C35.7896 6.58766 36.0202 7.02311 36.3037 7.38541C36.5553 7.70661 36.8302 7.86768 37.0908 7.90885C37.361 7.95127 37.583 7.86543 37.708 7.68326C37.9159 7.37997 38.0147 6.87247 38.0576 6.20475C38.0783 5.88213 38.0852 5.5529 38.0957 5.21842C38.106 4.89141 38.1199 4.55754 38.1562 4.25553L38.1846 4.12174C38.2007 4.07108 38.225 4.01566 38.2617 3.96158C38.3462 3.83733 38.4774 3.74781 38.6338 3.72037C38.7695 3.69681 38.8848 3.72713 38.9531 3.75162C39.025 3.77751 39.0878 3.81286 39.1357 3.84342C39.3106 3.95515 39.5159 4.15336 39.6943 4.32877C40.1039 4.7315 40.5219 5.16132 40.873 5.35807C41.1807 5.53014 41.3715 5.45966 41.4307 5.40299C41.4919 5.34435 41.543 5.26764 41.5879 5.17448C41.5238 4.82702 41.4571 4.40377 41.3994 3.98795C41.3031 3.29432 41.2221 2.56001 41.2158 2.16276C41.2142 2.05797 41.2179 1.95739 41.2314 1.86783C41.2415 1.80178 41.2687 1.64755 41.3789 1.51725C41.4459 1.43827 41.5565 1.35356 41.7119 1.33073C41.8616 1.30895 41.9844 1.35432 42.0586 1.39615C42.1879 1.46935 42.2639 1.5811 42.2959 1.63053C42.44 1.85376 42.5569 2.23712 42.6045 2.57194C42.6639 2.99049 42.7291 3.47414 42.748 3.94987C43.0727 3.46952 43.4802 2.94469 43.9482 2.57682C43.9627 2.35005 43.9855 2.11931 44.0273 1.88737C44.1229 1.358 44.332 0.654092 44.9072 0.288733ZM46.4277 1.08854C46.0799 0.944469 45.672 0.987628 45.4434 1.13248C45.2563 1.25133 45.102 1.55968 45.0107 2.0651C44.9991 2.12949 44.9921 2.19477 44.9834 2.25944C45.2029 2.30487 45.3862 2.41728 45.5303 2.54655C45.8518 2.83541 46.0868 3.29919 46.2695 3.70475C46.3654 3.91745 46.4582 4.1413 46.5449 4.3483C46.6334 4.55929 46.7174 4.75563 46.8008 4.92936C46.8851 5.10481 46.9617 5.24231 47.0322 5.33951C47.0946 5.42534 47.1323 5.45225 47.1387 5.4567C47.4528 5.59829 47.7965 5.57003 48.002 5.4401C48.2034 5.31242 48.3746 5.01388 48.4561 4.49186C48.5346 3.98781 48.5123 3.3791 48.4336 2.79557C48.3783 2.38614 48.1378 2.06219 47.7607 1.77994C47.3753 1.49165 46.8919 1.28088 46.4277 1.08854ZM37.0518 3.24283C37.0948 3.24278 37.1282 3.23735 37.1357 3.236C37.1391 3.23529 37.1427 3.23365 37.1455 3.23307C37.1153 3.2388 37.0836 3.24278 37.0518 3.24283Z" fill="#2F46F5"/>
</svg>
